<mxfile host="app.diagrams.net" modified="2022-11-10T22:10:39.302Z" agent="5.0 (Windows NT 10.0; Win64; x64) AppleWebKit/537.36 (KHTML, like Gecko) Chrome/107.0.0.0 Safari/537.36" etag="uwFPtjnJBI27lqfWQRen" version="20.5.3" type="github">
  <diagram id="bOLallhVjH3Ev7JnVUWV" name="Page-1">
    <mxGraphModel dx="782" dy="460" grid="1" gridSize="10" guides="1" tooltips="1" connect="1" arrows="1" fold="1" page="1" pageScale="1" pageWidth="827" pageHeight="1169" math="0" shadow="0">
      <root>
        <mxCell id="0" />
        <mxCell id="1" parent="0" />
        <mxCell id="ZyETmzfciTg3bGFEHn3D-2" value="" style="edgeStyle=orthogonalEdgeStyle;rounded=0;orthogonalLoop=1;jettySize=auto;html=1;" parent="1" source="ZyETmzfciTg3bGFEHn3D-3" target="ZyETmzfciTg3bGFEHn3D-6" edge="1">
          <mxGeometry relative="1" as="geometry" />
        </mxCell>
        <mxCell id="ZyETmzfciTg3bGFEHn3D-3" value="Admissions Diagnosed with&amp;nbsp;&lt;br&gt;&quot;Sepsis&quot;, &quot;Severe Sepsis&quot;, &quot;Septic Shock&quot;" style="rounded=1;whiteSpace=wrap;html=1;fillColor=#f5f5f5;fontColor=#333333;strokeColor=#666666;" parent="1" vertex="1">
          <mxGeometry x="150" y="60" width="180" height="60" as="geometry" />
        </mxCell>
        <mxCell id="ZyETmzfciTg3bGFEHn3D-9" value="" style="edgeStyle=orthogonalEdgeStyle;rounded=0;orthogonalLoop=1;jettySize=auto;html=1;" parent="1" source="ZyETmzfciTg3bGFEHn3D-6" target="ZyETmzfciTg3bGFEHn3D-8" edge="1">
          <mxGeometry relative="1" as="geometry" />
        </mxCell>
        <mxCell id="ZyETmzfciTg3bGFEHn3D-6" value="Considered only the Admissions between the ages of 18-90 years (excluding)" style="whiteSpace=wrap;html=1;rounded=1;fillColor=#ffe6cc;strokeColor=#d79b00;" parent="1" vertex="1">
          <mxGeometry x="350" y="170" width="120" height="60" as="geometry" />
        </mxCell>
        <mxCell id="ZyETmzfciTg3bGFEHn3D-7" value="Removed all Labs, drugs, vitals, diagnosis with NaN values" style="shape=callout;whiteSpace=wrap;html=1;perimeter=calloutPerimeter;position2=0;fillColor=#fff2cc;strokeColor=#d6b656;" parent="1" vertex="1">
          <mxGeometry x="409" y="20" width="140" height="90" as="geometry" />
        </mxCell>
        <mxCell id="ZyETmzfciTg3bGFEHn3D-11" value="" style="edgeStyle=orthogonalEdgeStyle;rounded=0;orthogonalLoop=1;jettySize=auto;html=1;" parent="1" source="ZyETmzfciTg3bGFEHn3D-8" target="ZyETmzfciTg3bGFEHn3D-10" edge="1">
          <mxGeometry relative="1" as="geometry" />
        </mxCell>
        <mxCell id="ZyETmzfciTg3bGFEHn3D-8" value="Consider first 24,48,72 hours data" style="whiteSpace=wrap;html=1;rounded=1;fillColor=#ffe6cc;strokeColor=#d79b00;" parent="1" vertex="1">
          <mxGeometry x="150" y="170" width="120" height="60" as="geometry" />
        </mxCell>
        <mxCell id="ZyETmzfciTg3bGFEHn3D-13" value="" style="edgeStyle=orthogonalEdgeStyle;rounded=0;orthogonalLoop=1;jettySize=auto;html=1;" parent="1" source="ZyETmzfciTg3bGFEHn3D-10" target="ZyETmzfciTg3bGFEHn3D-12" edge="1">
          <mxGeometry relative="1" as="geometry" />
        </mxCell>
        <mxCell id="ZyETmzfciTg3bGFEHn3D-10" value="Consider 1st occurrence of sepsis" style="whiteSpace=wrap;html=1;rounded=1;fillColor=#ffe6cc;strokeColor=#d79b00;" parent="1" vertex="1">
          <mxGeometry x="150" y="290" width="120" height="60" as="geometry" />
        </mxCell>
        <mxCell id="ZyETmzfciTg3bGFEHn3D-12" value="Label encode: Labs, Drugs, vitals&lt;br&gt;Sentence emb: Diagnosis" style="whiteSpace=wrap;html=1;rounded=1;fillColor=#d5e8d4;strokeColor=#82b366;" parent="1" vertex="1">
          <mxGeometry x="350" y="290" width="120" height="60" as="geometry" />
        </mxCell>
      </root>
    </mxGraphModel>
  </diagram>
</mxfile>
